<svg id="Stockholm-icons-_-Files-_-File-plus" data-name="Stockholm-icons-/-Files-/-File-plus" xmlns="http://www.w3.org/2000/svg" width="24" height="24" viewBox="0 0 24 24">
  <path id="Shape" d="M0,0H24V24H0Z" fill="none" fill-rule="evenodd"/>
  <path id="Combined-Shape" d="M5.857,2h7.879a1.5,1.5,0,0,1,.969.355l4.764,4.029A1.5,1.5,0,0,1,20,7.529V20.083C20,21.874,19.98,22,18.143,22H5.857C4.02,22,4,21.874,4,20.083V3.917C4,2.126,4.02,2,5.857,2Z" fill="#21b9ff" opacity="0.3"/>
  <path id="Combined-Shape-2" data-name="Combined-Shape" d="M11,14H9a1,1,0,0,1,0-2h2V10a1,1,0,0,1,2,0v2h2a1,1,0,0,1,0,2H13v2a1,1,0,0,1-2,0Z" fill="#21b9ff" fill-rule="evenodd"/>
</svg>
