<svg xmlns="http://www.w3.org/2000/svg" width="24" height="24" viewBox="0 0 24 24">
  <g id="Stockholm-icons-_-Communication-_-Group-chat" data-name="Stockholm-icons-/-Communication-/-Group-chat" transform="translate(-0.469)">
    <rect id="bound" width="24" height="24" transform="translate(0.469)" fill="none"/>
    <path id="Combined-Shape" d="M16,15.632V12a3,3,0,0,0-3-3H6.162V5.526A2.526,2.526,0,0,1,8.688,3H20.478A2.526,2.526,0,0,1,23,5.526v7.579l.017,4.682a.5.5,0,0,1-.854.355l-2.511-2.511Z" transform="translate(0.494)" fill="#21b9ff" fill-rule="evenodd"/>
    <path id="Combined-Shape-2" data-name="Combined-Shape" d="M1.985,18V13a2,2,0,0,1,2-2h8a2,2,0,0,1,2,2v5a2,2,0,0,1-2,2H4.1L2.857,21.191a.5.5,0,0,1-.846-.361V18.324A2.014,2.014,0,0,1,1.985,18ZM6.5,14a.5.5,0,0,0,0,1h5a.5.5,0,0,0,0-1Zm3,2a.5.5,0,0,0,0,1h2a.5.5,0,0,0,0-1Z" transform="translate(0.494)" fill="#21b9ff" fill-rule="evenodd" opacity="0.3"/>
  </g>
</svg>
