<svg id="Stockholm-icons-_-Navigation-_-Double-check" data-name="Stockholm-icons-/-Navigation-/-Double-check" xmlns="http://www.w3.org/2000/svg" width="24" height="24" viewBox="0 0 24 24">
  <path id="Shape" d="M0,0H24V24H0Z" fill="none" fill-rule="evenodd"/>
  <path id="Path-94-Copy" d="M9.262,16.648a1,1,0,1,1-1.524-1.3l8.5-10a1,1,0,0,1,1.426-.1l4.5,4a1,1,0,1,1-1.329,1.495L17.1,7.427Z" transform="translate(30 22) rotate(180)" fill="#21b9ff" opacity="0.3"/>
  <path id="Path-94" d="M4.262,17.648a1,1,0,1,1-1.524-1.3l8.5-10a1,1,0,0,1,1.426-.1l4.5,4a1,1,0,1,1-1.329,1.495L12.1,8.427Z" transform="translate(20 24) rotate(180)" fill="#21b9ff"/>
</svg>
